<svg width="73" height="73" viewBox="0 0 73 73" fill="none" xmlns="http://www.w3.org/2000/svg">
<rect x="1.86523" y="2.16797" width="69" height="69" rx="10.5" fill="#76BC21" stroke="white" stroke-width="3"/>
<path d="M26.7935 43.1087L26.5927 42.5714L36.4281 39.4762V29.9277C29.1129 29.9725 24.5688 31.7915 23.0467 32.5136C21.0562 33.7225 19.4448 35.3232 18.4524 37.1143L18.4356 37.1423C18.3687 37.2542 18.3074 37.3717 18.2405 37.4837C18.2405 37.4837 18.2349 37.4893 18.2349 37.4949C16.618 40.4501 16.5009 43.1255 16.6849 44.8773L16.7239 45.1404C17.3595 48.8848 19.2887 51.2131 20.7941 52.5116C20.9446 52.6404 21.084 52.7523 21.2179 52.8587L21.3461 52.9594C23.3923 54.4874 25.3605 55.4669 28.8286 55.6516C29.0293 55.6628 29.23 55.6684 29.4363 55.6684C29.7708 55.6684 30.1165 55.6516 30.4734 55.6236C30.4789 55.6236 30.4901 55.6236 30.4957 55.6236L30.6295 55.6124C30.6295 55.6124 30.6406 55.6124 30.6462 55.6124L30.8692 55.59C32.7371 55.3717 34.2982 54.7728 35.4412 54.2971C29.1296 49.1534 26.905 43.3885 26.799 43.1199" fill="white"/>
<path d="M36.9745 28.8359H37.5154V39.487L46.1743 42.4198C46.5925 41.3564 47.6964 38.0486 48.8562 30.3527C48.8394 29.9105 48.8116 29.4796 48.767 29.0654C48.7112 28.3882 48.5941 27.7109 48.4213 27.0393C48.4213 27.0337 48.4213 27.0281 48.4213 27.0225L48.3822 26.8826C48.1871 26.1662 47.925 25.4609 47.6017 24.7725C46.9939 23.4908 46.1743 22.3322 45.1763 21.3247C44.7525 20.8994 44.2842 20.4964 43.7824 20.1214L43.721 20.071C43.6876 20.0486 43.6541 20.0206 43.6207 19.9983C42.4721 19.1755 41.2176 18.5598 39.885 18.168C38.8981 17.8322 37.8722 17.6699 36.8463 17.6755H36.7905C36.0155 17.6475 35.2238 17.6979 34.4488 17.821L34.3317 17.8434C33.8801 17.9162 33.434 18.0169 32.9991 18.1456C30.7354 18.7893 28.7059 20.0654 27.128 21.8397C26.9161 22.0747 26.7098 22.3266 26.5147 22.5841C26.5147 22.5841 26.5091 22.5897 26.5035 22.5953L26.4422 22.6792C26.4199 22.7128 26.3976 22.7408 26.3753 22.7744L26.3363 22.8303C26.3363 22.8303 26.3363 22.8359 26.3307 22.8415C24.8978 24.8285 24.0893 27.1736 23.9889 29.6139C23.9889 29.6195 23.9555 30.1008 23.9722 30.9292C26.3251 30.0225 30.6797 28.7967 36.9801 28.8303" fill="white"/>
<path d="M56.0994 42.4726C56.0102 41.2982 55.7761 40.163 55.4137 39.1005L55.3914 39.0334C55.3803 38.9942 55.3636 38.9551 55.3524 38.9159C54.1204 35.5662 51.8181 33.6145 50.5583 32.7477C50.235 32.524 49.9339 32.3395 49.6608 32.1885C48.256 40.8396 47.0017 43.2387 46.9404 43.3505L46.723 43.7532L36.9564 40.4482L28.0315 43.2499C28.7562 44.8269 31.2536 49.6082 36.5661 53.7912C36.5661 53.7912 36.5717 53.7912 36.5773 53.7912C37.5361 54.3449 38.7625 54.8034 40.5464 55.2676L40.8363 55.3347C42.687 55.7038 44.5879 55.7038 46.4889 55.3347C47.9605 54.9656 49.3207 54.384 50.5304 53.5955C50.6865 53.4948 50.8314 53.3942 50.982 53.2879C50.9875 53.2879 50.9931 53.2767 50.9987 53.2712C54.2598 50.9336 55.2855 47.7908 55.2967 47.7628C55.4193 47.3602 55.5196 47.0135 55.6088 46.6891V46.6779L55.7092 46.2865C56.0492 44.9052 56.1719 43.6581 56.0827 42.4838" fill="white"/>
</svg>
